Coordinates
version=1
nRows=14
nColumns=24
inDegrees=yes

Units are S.I. units (second, meters, Newtons, ...)
Angles are in degrees.

endheader
time	pelvis_tilt	pelvis_list	pelvis_rotation	pelvis_tx	pelvis_ty	pelvis_tz	hip_flexion_r	hip_adduction_r	hip_rotation_r	knee_angle_r	ankle_angle_r	subtalar_angle_r	mtp_angle_r	hip_flexion_l	hip_adduction_l	hip_rotation_l	knee_angle_l	ankle_angle_l	subtalar_angle_l	mtp_angle_l	lumbar_extension	lumbar_bending	lumbar_rotation
      4.90000000	     12.45463615	     -5.61546572	    -22.86774348	     -0.36796158	      0.79229698	     -0.13104364	    -38.37854678	     -5.20500525	     13.84321126	      1.15666609	     21.48880600	     12.68858076	      0.00000000	      9.57708147	     -8.02421951	     -8.55136197	     -4.46017818	      3.71453542	    -18.98240430	      0.00000000	    -30.00050781	     -3.93933901	     23.43772387
      4.91000000	     13.09469490	     -4.62017491	    -22.60760875	     -0.35182180	      0.79139977	     -0.13238955	    -39.56049312	     -6.62068996	     12.69602006	      0.62052050	     20.57002959	     13.21888750	      0.00000000	      9.69114117	     -6.46557575	     -8.18553635	     -6.43858606	      3.13405759	    -19.87422067	      0.00000000	    -29.82971157	     -4.73709768	     22.31646786
      4.92000000	     13.66291707	     -3.49100696	    -22.20843807	     -0.33523293	      0.79069840	     -0.13388717	    -40.55111120	     -7.95677653	     11.23739149	     -0.20476772	     19.51108349	     13.91941538	      0.00000000	     10.00626875	     -4.76774074	     -8.16139823	     -8.82426185	      2.83374327	    -20.06642498	      0.00000000	    -29.48175609	     -5.56117042	     21.03809826
      4.93000000	     14.13320182	     -2.26282711	    -21.62381035	     -0.31820980	      0.79012487	     -0.13560807	    -41.35442684	     -9.15226471	      9.70732666	     -1.29405538	     18.19524349	     14.48095398	      0.00000000	     10.47250278	     -2.96428981	     -8.07637013	    -11.42884864	      2.52686982	    -20.05211993	      0.00000000	    -28.94314631	     -6.36563573	     19.61991798
      4.94000000	     14.45474028	     -1.00675150	    -20.95504277	     -0.30083104	      0.78966746	     -0.13734672	    -41.90064282	    -10.18847799	      8.48305832	     -2.66925648	     16.53273648	     14.54863490	      0.00000000	     11.03005736	     -1.17495790	     -7.94292845	    -14.09392888	      2.35452292	    -19.74948972	      0.00000000	    -28.17783745	     -7.13574613	     18.30359463
      4.95000000	     14.78613350	      0.14769862	    -20.12478165	     -0.28332122	      0.78955878	     -0.13939906	    -42.25078158	    -10.97522855	      7.00742610	     -4.55465935	     14.72279855	     14.93524332	      0.00000000	     11.42347503	      0.58017347	     -7.57892089	    -16.62885350	      2.16762366	    -19.42402655	      0.00000000	    -27.51486461	     -7.71249948	     16.80189199
      4.96000000	     15.07413518	      1.23565690	    -19.43333416	     -0.26572281	      0.78975411	     -0.14113148	    -42.33206387	    -11.70271930	      6.27008286	     -6.82823149	     12.53281653	     14.60427105	      0.00000000	     11.62489025	      2.21904078	     -7.39857357	    -18.91896434	      2.28805642	    -18.80609647	      0.00000000	    -26.76208068	     -8.32539139	     15.63376397
      4.97000000	     15.36724244	      2.13558719	    -18.66170562	     -0.24832730	      0.79030309	     -0.14293899	    -42.10174455	    -12.14900294	      5.55648890	     -9.70166521	     10.15230578	     14.25604608	      0.00000000	     11.56721954	      3.69534956	     -7.07337414	    -20.90932675	      2.74148111	    -18.06561962	      0.00000000	    -26.17981168	     -8.74480637	     14.52471243
      4.98000000	     15.58602644	      2.79799769	    -17.87604407	     -0.23138755	      0.79116765	     -0.14469065	    -41.41364310	    -12.30137676	      5.07314662	    -13.19465341	      7.58230888	     13.75633061	      0.00000000	     11.32735130	      4.88815032	     -6.75354907	    -22.61098293	      3.58942104	    -17.11979472	      0.00000000	    -25.71028753	     -8.93239687	     13.58878824
      4.99000000	     15.76306209	      3.30404541	    -17.25653828	     -0.21490162	      0.79231549	     -0.14608093	    -40.26984182	    -12.33943899	      4.99781084	    -17.22447527	      4.77537610	     12.85960710	      0.00000000	     10.84071299	      5.84481958	     -6.67403812	    -23.90869089	      4.83049406	    -16.06517154	      0.00000000	    -25.29494794	     -9.05297589	     12.83018837
      5.00000000	     15.92535320	      3.72771283	    -16.77441582	     -0.19903355	      0.79369937	     -0.14717000	    -38.67302963	    -12.32059182	      5.07477684	    -21.75543307	      1.83467593	     11.71027827	      0.00000000	     10.13188324	      6.66277599	     -6.72096757	    -24.81164431	      6.25660203	    -14.98391102	      0.00000000	    -25.00172970	     -9.19681889	     12.23729235
      5.01000000	     16.02095697	      4.11596208	    -16.43475113	     -0.18383676	      0.79515797	     -0.14802686	    -36.57247651	    -12.29207733	      5.20312120	    -26.70898171	     -1.13755989	     10.26199016	      0.00000000	      9.30544758	      7.38858253	     -6.87117103	    -25.35294669	      7.79449462	    -13.96395379	      0.00000000	    -24.76607257	     -9.37737045	     11.75644911
      5.02000000	     16.00993704	      4.52591883	    -16.23366782	     -0.16929813	      0.79655548	     -0.14870751	    -33.98816162	    -12.30864233	      5.35655102	    -31.92736294	     -4.01299449	      8.48278218	      0.00000000	      8.45795567	      8.08888795	     -7.08530724	    -25.57502453	      9.32158807	    -13.07588749	      0.00000000	    -24.52192489	     -9.62704933	     11.35352385
      5.03000000	     15.89740582	      4.98775866	    -16.14551428	     -0.15535631	      0.79783396	     -0.14926373	    -31.02460806	    -12.38417289	      5.57557764	    -37.22334230	     -6.62044566	      6.39460531	      0.00000000	      7.62260703	      8.82057382	     -7.27653626	    -25.51931531	     10.73343758	    -12.36702623	      0.00000000	    -24.25376574	     -9.96335965	     10.97826442
